# xmcd
# 
# Track frame offsets:
#     150
#     19760
#     31335
#     47712
#     62071
#     75530
#     87265
#     100639
#     112178
#     126422
#     136720
#     150323
#     163261
# 
# Disc length: 2453
# 
# Revision: 2
# Processed by: cddbd v1.5.2PL0 Copyright (c) Steve Scherf et al.
# Submitted via: fre:ac v1.0.31
# 
DISCID=9f09930d
DTITLE=The Mighty Mighty Bosstones - Medium Rare
DYEAR=2007
DGENRE=Ska
TTITLE0=This List
TTITLE1=The Meaning
TTITLE2=Don't Worry Desmond Dekker
TTITLE3=To California
TTITLE4=The One With The Woes All Over It
TTITLE5=So Many Ways
TTITLE6=A Reason To Toast
TTITLE7=Who's Fooling Who?
TTITLE8=Katie
TTITLE9=This Time Of Year
TTITLE10=Chocolate Pudding
TTITLE11=Is It?
TTITLE12=Favorite Records
EXTD=
EXTT0=
EXTT1=
EXTT2=
EXTT3=
EXTT4=
EXTT5=
EXTT6=
EXTT7=
EXTT8=
EXTT9=
EXTT10=
EXTT11=
EXTT12=
PLAYORDER=
